<svg width="183" height="25" viewBox="0 0 183 25" fill="none" xmlns="http://www.w3.org/2000/svg">
<path d="M8.344 24.416C7.256 24.416 6.232 24.2027 5.272 23.776C4.312 23.3493 3.46933 22.7733 2.744 22.048C2.01867 21.3227 1.45333 20.512 1.048 19.616C0.642667 18.6987 0.44 17.7493 0.44 16.768C0.44 15.8293 0.632 14.912 1.016 14.016C1.42133 13.12 1.976 12.3093 2.68 11.584C3.384 10.8587 4.216 10.2827 5.176 9.856C6.15733 9.42933 7.224 9.216 8.376 9.216C9.4 9.216 10.3387 9.38667 11.192 9.728C12.0453 10.0693 12.728 10.5387 13.24 11.136C13.752 11.712 14.008 12.384 14.008 13.152C14.008 13.8987 13.7627 14.4853 13.272 14.912C12.8027 15.3173 12.2053 15.52 11.48 15.52C10.7973 15.52 10.2427 15.328 9.816 14.944C9.38933 14.56 9.176 14.048 9.176 13.408C9.176 12.9813 9.25067 12.6613 9.4 12.448C9.57067 12.2347 9.73067 12.0427 9.88 11.872C10.0293 11.7013 10.104 11.488 10.104 11.232C10.104 10.912 9.95467 10.6667 9.656 10.496C9.37867 10.3253 8.99467 10.24 8.504 10.24C7.88533 10.24 7.34133 10.4213 6.872 10.784C6.40267 11.1467 6.04 11.8293 5.784 12.832C5.528 13.8347 5.4 15.3173 5.4 17.28C5.4 18.8587 5.496 20.096 5.688 20.992C5.90133 21.8667 6.24267 22.4747 6.712 22.816C7.20267 23.1573 7.84267 23.328 8.632 23.328C9.784 23.328 10.7547 23.008 11.544 22.368C12.3547 21.728 13.048 20.6933 13.624 19.264H14.68C14.2533 20.8 13.496 22.048 12.408 23.008C11.3413 23.9467 9.98667 24.416 8.344 24.416ZM16.265 24V23.04H18.857V10.56H16.265V9.6H23.273V12.064H23.401C24.105 10.8693 24.8517 10.1013 25.641 9.76C26.4303 9.39733 27.1343 9.216 27.753 9.216C28.7343 9.216 29.4917 9.472 30.025 9.984C30.5583 10.4747 30.825 11.1893 30.825 12.128C30.825 13.0453 30.5903 13.7173 30.121 14.144C29.673 14.5707 29.1077 14.784 28.425 14.784C27.8063 14.784 27.241 14.6027 26.729 14.24C26.2383 13.8773 25.993 13.3333 25.993 12.608C25.993 12.1813 26.057 11.872 26.185 11.68C26.3343 11.488 26.409 11.3387 26.409 11.232C26.409 11.1893 26.3877 11.1573 26.345 11.136C26.3237 11.0933 26.2597 11.072 26.153 11.072C25.8117 11.072 25.4063 11.296 24.937 11.744C24.489 12.192 24.0943 12.7787 23.753 13.504C23.433 14.2293 23.273 15.0187 23.273 15.872V23.04H25.353V24H16.265ZM41.0025 24.416C39.8932 24.416 38.8478 24.2027 37.8665 23.776C36.9065 23.3493 36.0532 22.7733 35.3065 22.048C34.5812 21.3227 34.0158 20.5013 33.6105 19.584C33.2052 18.6667 33.0025 17.7067 33.0025 16.704C33.0025 15.4667 33.3225 14.2827 33.9625 13.152C34.6025 12 35.5092 11.0613 36.6825 10.336C37.8558 9.58933 39.2318 9.216 40.8105 9.216C42.0905 9.216 43.2318 9.472 44.2345 9.984C45.2585 10.496 46.0585 11.232 46.6345 12.192C47.2318 13.1307 47.5305 14.2507 47.5305 15.552V15.904H36.4265V14.944H43.0185V12.992C43.0185 11.1573 42.2505 10.24 40.7145 10.24C40.0532 10.24 39.5198 10.4427 39.1145 10.848C38.7092 11.2533 38.4105 11.9467 38.2185 12.928C38.0478 13.888 37.9625 15.2107 37.9625 16.896C37.9625 18.624 38.0585 19.9573 38.2505 20.896C38.4425 21.8133 38.7732 22.4427 39.2425 22.784C39.7118 23.1253 40.3518 23.296 41.1625 23.296C42.2932 23.296 43.3172 23.0187 44.2345 22.464C45.1732 21.9093 45.9518 20.9493 46.5705 19.584H47.6265C47.1785 21.056 46.3572 22.2293 45.1625 23.104C43.9892 23.9787 42.6025 24.416 41.0025 24.416ZM54.414 24.384C53.1553 24.384 52.1207 24.0533 51.31 23.392C50.4993 22.7307 50.094 21.856 50.094 20.768C50.094 19.744 50.4567 18.8587 51.182 18.112C51.9287 17.3653 52.974 16.8 54.318 16.416C55.662 16.0107 57.23 15.808 59.022 15.808V12.064C59.022 11.5093 58.8193 11.072 58.414 10.752C58.0087 10.432 57.4753 10.272 56.814 10.272C56.2593 10.272 55.7793 10.3787 55.374 10.592C54.99 10.8053 54.798 11.0827 54.798 11.424C54.798 11.7013 54.9047 11.9467 55.118 12.16C55.3527 12.352 55.47 12.672 55.47 13.12C55.47 13.6747 55.246 14.1653 54.798 14.592C54.3713 15.0187 53.8487 15.232 53.23 15.232C52.6113 15.232 52.0993 15.0187 51.694 14.592C51.2887 14.1653 51.086 13.6427 51.086 13.024C51.086 12.2987 51.3633 11.648 51.918 11.072C52.4727 10.496 53.2407 10.048 54.222 9.728C55.2033 9.38667 56.3127 9.216 57.55 9.216C59.2567 9.216 60.6647 9.52533 61.774 10.144C62.8833 10.7413 63.438 11.5307 63.438 12.512V21.824C63.438 22.016 63.502 22.1867 63.63 22.336C63.7793 22.4853 63.9607 22.56 64.174 22.56C64.3447 22.56 64.526 22.4853 64.718 22.336C64.9313 22.1867 65.2193 21.9093 65.582 21.504L66.222 22.24C65.0487 23.6693 63.7153 24.384 62.222 24.384C61.3473 24.384 60.654 24.1813 60.142 23.776C59.6513 23.3707 59.3207 22.8373 59.15 22.176H59.022C58.638 22.7307 58.0407 23.2427 57.23 23.712C56.4407 24.16 55.502 24.384 54.414 24.384ZM56.558 22.624C57.2407 22.624 57.8167 22.3253 58.286 21.728C58.7767 21.1093 59.022 20.3093 59.022 19.328V16.8C57.6567 16.8 56.6007 17.088 55.854 17.664C55.1073 18.24 54.734 19.0933 54.734 20.224C54.734 20.9493 54.8833 21.536 55.182 21.984C55.502 22.4107 55.9607 22.624 56.558 22.624ZM72.6545 24.416C71.3745 24.416 70.4358 24.192 69.8385 23.744C69.2625 23.2747 68.9745 22.6027 68.9745 21.728V10.592H66.3825V9.6C67.1932 9.536 67.9505 9.248 68.6545 8.736C69.3798 8.224 70.0305 7.56267 70.6065 6.752C71.2038 5.94133 71.6945 5.056 72.0785 4.096H73.3905V9.6H77.0705V10.592H73.3905V21.184C73.3905 22.144 73.7958 22.624 74.6065 22.624C75.0332 22.624 75.4065 22.496 75.7265 22.24C76.0678 21.9627 76.4412 21.4933 76.8465 20.832L77.6145 21.28C77.0385 22.4533 76.3665 23.2747 75.5985 23.744C74.8305 24.192 73.8492 24.416 72.6545 24.416ZM80.607 23.52V10.112H85.023V23.52H80.607ZM78.015 24V23.04H87.103V24H78.015ZM78.015 10.56V9.6H85.023V10.56H78.015ZM82.559 5.888C81.8763 5.888 81.279 5.632 80.767 5.12C80.255 4.608 79.999 4.01067 79.999 3.328C79.999 2.624 80.255 2.016 80.767 1.504C81.279 0.991999 81.8763 0.735998 82.559 0.735998C83.263 0.735998 83.871 0.991999 84.383 1.504C84.895 2.016 85.151 2.624 85.151 3.328C85.151 4.01067 84.895 4.608 84.383 5.12C83.871 5.632 83.263 5.888 82.559 5.888ZM87.1137 10.56V9.6H95.6898V10.56H87.1137ZM97.9298 10.56V9.6H103.946V10.56H97.9298ZM95.0818 24.416L88.5858 9.92H93.5778L97.3218 18.656H97.4818L95.0818 24.416ZM95.0818 24.416L100.842 10.176H101.994L96.0098 24.416H95.0818ZM112.378 24.416C111.268 24.416 110.223 24.2027 109.242 23.776C108.282 23.3493 107.428 22.7733 106.682 22.048C105.956 21.3227 105.391 20.5013 104.986 19.584C104.58 18.6667 104.378 17.7067 104.378 16.704C104.378 15.4667 104.698 14.2827 105.338 13.152C105.978 12 106.884 11.0613 108.058 10.336C109.231 9.58933 110.607 9.216 112.186 9.216C113.466 9.216 114.607 9.472 115.61 9.984C116.634 10.496 117.434 11.232 118.01 12.192C118.607 13.1307 118.906 14.2507 118.906 15.552V15.904H107.802V14.944H114.394V12.992C114.394 11.1573 113.626 10.24 112.09 10.24C111.428 10.24 110.895 10.4427 110.49 10.848C110.084 11.2533 109.786 11.9467 109.594 12.928C109.423 13.888 109.338 15.2107 109.338 16.896C109.338 18.624 109.434 19.9573 109.626 20.896C109.818 21.8133 110.148 22.4427 110.618 22.784C111.087 23.1253 111.727 23.296 112.538 23.296C113.668 23.296 114.692 23.0187 115.61 22.464C116.548 21.9093 117.327 20.9493 117.946 19.584H119.002C118.554 21.056 117.732 22.2293 116.538 23.104C115.364 23.9787 113.978 24.416 112.378 24.416ZM124.509 24.416C123.741 24.416 123.08 24.1493 122.525 23.616C121.992 23.0613 121.725 22.4 121.725 21.632C121.725 20.864 121.992 20.2133 122.525 19.68C123.08 19.1253 123.741 18.848 124.509 18.848C125.277 18.848 125.928 19.1253 126.461 19.68C127.016 20.2133 127.293 20.864 127.293 21.632C127.293 22.4 127.016 23.0613 126.461 23.616C125.928 24.1493 125.277 24.416 124.509 24.416ZM128.426 10.56V9.6H137.002V10.56H128.426ZM139.242 10.56V9.6H145.258V10.56H139.242ZM136.394 24.416L129.898 9.92H134.89L138.634 18.656H138.794L136.394 24.416ZM136.394 24.416L142.154 10.176H143.306L137.322 24.416H136.394ZM153.627 24.416C152.517 24.416 151.483 24.2347 150.523 23.872C149.563 23.5093 148.72 22.9867 147.995 22.304C147.269 21.6213 146.693 20.8213 146.267 19.904C145.861 18.9653 145.659 17.9307 145.659 16.8C145.659 15.6907 145.861 14.6773 146.267 13.76C146.693 12.8213 147.269 12.0213 147.995 11.36C148.72 10.6773 149.563 10.1547 150.523 9.792C151.483 9.408 152.517 9.216 153.627 9.216C154.736 9.216 155.771 9.408 156.731 9.792C157.691 10.1547 158.533 10.6773 159.259 11.36C160.005 12.0213 160.581 12.8213 160.987 13.76C161.413 14.6773 161.627 15.6907 161.627 16.8C161.627 17.9307 161.413 18.9653 160.987 19.904C160.581 20.8213 160.005 21.6213 159.259 22.304C158.533 22.9867 157.691 23.5093 156.731 23.872C155.771 24.2347 154.736 24.416 153.627 24.416ZM153.627 23.296C154.373 23.296 154.971 23.1253 155.419 22.784C155.867 22.4427 156.187 21.8133 156.379 20.896C156.571 19.9573 156.667 18.6027 156.667 16.832C156.667 15.0613 156.571 13.7067 156.379 12.768C156.187 11.8293 155.867 11.1893 155.419 10.848C154.971 10.5067 154.373 10.336 153.627 10.336C152.88 10.336 152.283 10.5067 151.835 10.848C151.408 11.1893 151.099 11.8293 150.907 12.768C150.715 13.7067 150.619 15.0613 150.619 16.832C150.619 18.6027 150.715 19.9573 150.907 20.896C151.099 21.8133 151.408 22.4427 151.835 22.784C152.283 23.1253 152.88 23.296 153.627 23.296ZM175.959 23.52V12.224C175.959 11.1573 175.479 10.624 174.519 10.624C173.815 10.624 173.175 10.912 172.599 11.488C172.023 12.064 171.564 12.8533 171.223 13.856C170.881 14.8373 170.711 15.9573 170.711 17.216L170.071 12.256H170.839C171.265 11.3173 171.873 10.5813 172.663 10.048C173.473 9.49333 174.497 9.216 175.735 9.216C177.121 9.216 178.241 9.55733 179.095 10.24C179.948 10.9013 180.375 11.7227 180.375 12.704V23.52H175.959ZM163.703 24V23.04H172.791V24H163.703ZM166.295 23.52V10.112H170.711V23.52H166.295ZM173.783 24V23.04H182.391V24H173.783ZM163.703 10.56V9.6H170.711V10.56H163.703Z" fill="#F6EFEF"/>
</svg>
